<?xml version="1.0" encoding="UTF-8"?>
<svg version="1.1" xmlns="http://www.w3.org/2000/svg" width="204" height="192">
<path d="M0 0 C67.32 0 134.64 0 204 0 C204 63.36 204 126.72 204 192 C136.68 192 69.36 192 0 192 C0 128.64 0 65.28 0 0 Z " fill="#FEFEFE" transform="translate(0,0)"/>
<path d="M0 0 C3.79039622 2.17666317 6.84855341 4.78146037 10.09375 7.6875 C14.61233143 11.70068085 19.18370935 15.37046036 24.15625 18.8125 C23.66125 21.2875 23.66125 21.2875 23.15625 23.8125 C26.48277775 19.97283765 26.74534539 17.25398011 26.5546875 12.296875 C25.85285112 7.92071877 24.73079477 6.52915403 21.15625 3.8125 C16.34558153 3.02756056 11.82830672 3.50691371 7.15625 4.8125 C6.49625 3.4925 5.83625 2.1725 5.15625 0.8125 C9.1032231 -2.34507848 12.62061684 -2.81832984 17.51953125 -2.671875 C23.21123195 -1.6262885 27.39066798 1.88641053 31.21875 6.0625 C33.02052084 11.34769447 32.91887663 16.61434089 31.09375 21.875 C26.11089271 29.42965461 20.90953195 35.19264286 13.7421875 40.7890625 C11.63946671 42.43439387 9.68191562 44.1337793 7.71875 45.9375 C5.15625 47.8125 5.15625 47.8125 3.3515625 47.6796875 C-5.5664342 44.15692012 -13.43642704 35.65668589 -19.84375 28.8125 C-19.9675 29.328125 -20.09125 29.84375 -20.21875 30.375 C-20.528125 31.5815625 -20.528125 31.5815625 -20.84375 32.8125 C-21.0809375 33.91851562 -21.318125 35.02453125 -21.5625 36.1640625 C-23.09228666 40.52022331 -25.16372344 42.94173646 -28.34375 46.1875 C-28.84261719 46.71988281 -29.34148437 47.25226563 -29.85546875 47.80078125 C-34.53323929 52.72937059 -34.53323929 52.72937059 -37.9375 52.9453125 C-38.7315625 52.94273438 -39.525625 52.94015625 -40.34375 52.9375 C-41.1378125 52.94007812 -41.931875 52.94265625 -42.75 52.9453125 C-44.84375 52.8125 -44.84375 52.8125 -46.84375 51.8125 C-46.84375 50.4925 -46.84375 49.1725 -46.84375 47.8125 C-46.17988281 47.85890625 -45.51601563 47.9053125 -44.83203125 47.953125 C-39.15833112 48.21640301 -39.15833112 48.21640301 -33.96875 46.1875 C-31.61131137 43.55271565 -29.71018915 40.81213435 -27.84375 37.8125 C-27.51375 37.4825 -27.18375 37.1525 -26.84375 36.8125 C-26.5936727 34.35440002 -26.5936727 34.35440002 -26.84375 31.8125 C-28.72875271 29.49686913 -28.72875271 29.49686913 -31.84375 29.5625 C-34.95874729 29.49686913 -34.95874729 29.49686913 -36.84375 31.8125 C-37.978125 32.121875 -39.1125 32.43125 -40.28125 32.75 C-44.38208489 33.79420836 -44.38208489 33.79420836 -46.84375 36.8125 C-47.0805945 39.53082893 -46.97849513 42.07268235 -46.84375 44.8125 C-48.78125 45.375 -48.78125 45.375 -50.84375 45.8125 C-51.84375 44.8125 -51.84375 44.8125 -52.15625 41.625 C-51.77906284 37.0233166 -50.86345421 35.28515984 -47.84375 31.8125 C-43.19220991 28.17977068 -37.64601226 25.08439465 -31.84375 23.8125 C-30.833125 23.998125 -29.8225 24.18375 -28.78125 24.375 C-24.6275328 24.99363873 -22.18488534 23.04501166 -18.84375 20.8125 C-16.55400879 19.06788841 -14.38143412 17.21131596 -12.21875 15.3125 C-11.12291538 14.36398277 -10.02656883 13.41605661 -8.9296875 12.46875 C-8.41245117 12.02015625 -7.89521484 11.5715625 -7.36230469 11.109375 C-5.23188091 9.28995199 -3.04393271 7.54647299 -0.84375 5.8125 C-4.24665945 3.73755521 -6.38166558 2.8125 -10.40625 2.8125 C-14.67231925 4.05353833 -16.27237992 5.18233047 -18.84375 8.8125 C-19.78912006 12.80406248 -19.84375 16.72796573 -19.84375 20.8125 C-21.82375 21.8025 -21.82375 21.8025 -23.84375 22.8125 C-25.64220984 17.41712049 -26.30526324 10.80338246 -23.75 5.57421875 C-17.40153382 -2.31071132 -9.08582486 -3.79408071 0 0 Z " fill="#F8F9F9" transform="translate(99.84375,48.1875)"/>
<path d="M0 0 C3.79039622 2.17666317 6.84855341 4.78146037 10.09375 7.6875 C14.61233143 11.70068085 19.18370935 15.37046036 24.15625 18.8125 C23.82625 20.1325 23.49625 21.4525 23.15625 22.8125 C19.79828331 22.20819666 17.87667973 21.03995373 15.265625 18.87109375 C14.55664062 18.28779297 13.84765625 17.70449219 13.1171875 17.10351562 C12.38757813 16.49185547 11.65796875 15.88019531 10.90625 15.25 C10.16117188 14.63447266 9.41609375 14.01894531 8.6484375 13.38476562 C6.81259532 11.86666536 4.98219645 10.34247563 3.15625 8.8125 C2.1353125 9.87984375 2.1353125 9.87984375 1.09375 10.96875 C-2.53068568 14.59318568 -6.60384688 17.60385596 -10.671875 20.70703125 C-14.31792092 23.52082756 -17.80359055 26.32743916 -20.84375 29.8125 C-21.00608388 31.72803975 -21.16552706 33.64406736 -21.2890625 35.5625 C-22.50726398 40.50393699 -26.46645513 44.16627238 -29.84375 47.8125 C-30.35421875 48.38871094 -30.8646875 48.96492188 -31.390625 49.55859375 C-34.30182308 52.44525926 -36.64067124 53.11184299 -40.59375 53.1875 C-43.10618075 53.07640612 -44.58599185 52.94137908 -46.84375 51.8125 C-46.84375 50.4925 -46.84375 49.1725 -46.84375 47.8125 C-46.17988281 47.85890625 -45.51601563 47.9053125 -44.83203125 47.953125 C-39.15833112 48.21640301 -39.15833112 48.21640301 -33.96875 46.1875 C-31.61131137 43.55271565 -29.71018915 40.81213435 -27.84375 37.8125 C-27.51375 37.4825 -27.18375 37.1525 -26.84375 36.8125 C-26.5936727 34.35440002 -26.5936727 34.35440002 -26.84375 31.8125 C-28.72875271 29.49686913 -28.72875271 29.49686913 -31.84375 29.5625 C-34.95874729 29.49686913 -34.95874729 29.49686913 -36.84375 31.8125 C-37.978125 32.121875 -39.1125 32.43125 -40.28125 32.75 C-44.38208489 33.79420836 -44.38208489 33.79420836 -46.84375 36.8125 C-47.0805945 39.53082893 -46.97849513 42.07268235 -46.84375 44.8125 C-48.78125 45.375 -48.78125 45.375 -50.84375 45.8125 C-51.84375 44.8125 -51.84375 44.8125 -52.15625 41.625 C-51.77906284 37.0233166 -50.86345421 35.28515984 -47.84375 31.8125 C-43.19220991 28.17977068 -37.64601226 25.08439465 -31.84375 23.8125 C-30.833125 23.998125 -29.8225 24.18375 -28.78125 24.375 C-24.6275328 24.99363873 -22.18488534 23.04501166 -18.84375 20.8125 C-16.55400879 19.06788841 -14.38143412 17.21131596 -12.21875 15.3125 C-11.12291538 14.36398277 -10.02656883 13.41605661 -8.9296875 12.46875 C-8.41245117 12.02015625 -7.89521484 11.5715625 -7.36230469 11.109375 C-5.23188091 9.28995199 -3.04393271 7.54647299 -0.84375 5.8125 C-4.24665945 3.73755521 -6.38166558 2.8125 -10.40625 2.8125 C-14.67231925 4.05353833 -16.27237992 5.18233047 -18.84375 8.8125 C-19.78912006 12.80406248 -19.84375 16.72796573 -19.84375 20.8125 C-21.82375 21.8025 -21.82375 21.8025 -23.84375 22.8125 C-25.64220984 17.41712049 -26.30526324 10.80338246 -23.75 5.57421875 C-17.40153382 -2.31071132 -9.08582486 -3.79408071 0 0 Z " fill="#8BDC67" transform="translate(99.84375,48.1875)"/>
<path d="M0 0 C2.33944736 0.28730055 4.6739143 0.61936779 7 1 C7.33 0.67 7.66 0.34 8 0 C13.02182309 -0.57689493 16.93917616 -0.53041192 21.5 1.75 C25.35255801 5.21730221 25.89860608 6.72243665 26.3125 11.9375 C26.19257162 15.73993526 25.48924186 18.01290977 23 21 C19.23438395 24.24018125 16.10320299 25.77118764 11.03125 25.52734375 C7.22234708 24.53849395 4.48967948 21.96596598 2 19 C1.03362543 16.10087628 0.97279153 14.59813881 1.125 11.625 C1.19080961 7.59087065 0.52798232 5.2653105 -2 2 C-1.34 1.34 -0.68 0.68 0 0 Z " fill="#14426B" transform="translate(130,74)"/>
<path d="M0 0 C4.39351453 2.02466107 7.80476853 4.69611112 11.0625 8.25 C12.86427084 13.53519447 12.76262663 18.80184089 10.9375 24.0625 C5.95464271 31.61715461 0.75328195 37.38014286 -6.4140625 42.9765625 C-8.51678329 44.62189387 -10.47433438 46.3212793 -12.4375 48.125 C-15 50 -15 50 -16.80078125 49.87109375 C-25.31723714 46.49779062 -32.88723909 38.59818604 -39 32 C-38.01 30.515 -38.01 30.515 -37 29 C-33.15016778 30.60712336 -30.52709723 33.1058335 -27.5 35.9375 C-23.02613595 40.32729379 -23.02613595 40.32729379 -18 44 C-11.67983823 43.69663224 -5.8095115 36.83347854 -1.640625 32.609375 C3.79401426 26.61937114 6.59526264 22.73802855 6.36328125 14.484375 C5.72158868 10.0960258 4.57113531 8.71406284 1 6 C-3.81066847 5.21506056 -8.32794328 5.69441371 -13 7 C-13.66 5.68 -14.32 4.36 -15 3 C-10.38339729 -0.69328217 -5.65683704 -1.03918191 0 0 Z " fill="#1F4870" transform="translate(120,46)"/>
<path d="M0 0 C3.8425303 0.72047443 5.45767292 1.57152696 8 4.5625 C8.66017005 7.36391726 8.60984064 9.75493175 8 12.5625 C6.4375 15.0625 6.4375 15.0625 4 16.5625 C0.5625 17.125 0.5625 17.125 -3 16.5625 C-6.38121991 14.11651113 -7.76936783 12.66953441 -8.625 8.5625 C-7.58351809 3.56338683 -5.03644185 0.94433285 0 0 Z " fill="#A1AEBE" transform="translate(143,77.4375)"/>
<path d="M0 0 C4.39351453 2.02466107 7.80476853 4.69611112 11.0625 8.25 C12.49885877 12.46331907 12.23107548 16.59244913 12 21 C11.67 21 11.34 21 11 21 C10.67 18.69 10.34 16.38 10 14 C9.67 14 9.34 14 9 14 C8.67 15.65 8.34 17.3 8 19 C7.67 19 7.34 19 7 19 C6.90203125 18.39671875 6.8040625 17.7934375 6.703125 17.171875 C6.032135 13.58554916 5.35323992 10.60345153 3.5 7.4375 C-0.98357994 4.85944154 -6.36456302 5.40791703 -11.3125 6.51953125 C-11.869375 6.67808594 -12.42625 6.83664063 -13 7 C-13.66 5.68 -14.32 4.36 -15 3 C-10.38339729 -0.69328217 -5.65683704 -1.03918191 0 0 Z " fill="#0D3C67" transform="translate(120,46)"/>
<path d="M0 0 C3.48024738 1.74012369 5.8746013 3.8117026 7.625 7.3125 C7.97241553 12.61058682 8.16027987 16.07016415 4.625 20.3125 C-0.17792012 24.44524522 -3.31207386 24.73063284 -9.375 24.3125 C-8.385 23.9825 -7.395 23.6525 -6.375 23.3125 C-6.375 21.9925 -6.375 20.6725 -6.375 19.3125 C-5.42625 19.02375 -4.4775 18.735 -3.5 18.4375 C-0.32288422 17.54424891 -0.32288422 17.54424891 1.625 15.3125 C2.11832246 9.85685142 2.11832246 9.85685142 0.3125 4.875 C-1.39809613 3.07563043 -1.39809613 3.07563043 -4.375 2.3125 C-4.375 1.6525 -4.375 0.9925 -4.375 0.3125 C-2.375 -0.6875 -2.375 -0.6875 0 0 Z " fill="#1D4970" transform="translate(148.375,74.6875)"/>
<path d="M0 0 C2.625 0.375 2.625 0.375 5 1 C5.8125 3.125 5.8125 3.125 6 6 C4.39213251 8.33871635 2.99542951 10.05038392 1 12 C0.4946875 12.50402344 -0.010625 13.00804688 -0.53125 13.52734375 C-2.0625 14.9375 -2.0625 14.9375 -5 17 C-7.35560128 16.8726702 -8.34378382 16.65621618 -10 15 C-10.3125 12.6875 -10.3125 12.6875 -10 10 C-8.125 7.6875 -8.125 7.6875 -6 6 C-5.34 6 -4.68 6 -4 6 C-3.71125 5.38125 -3.4225 4.7625 -3.125 4.125 C-2 2 -2 2 0 0 Z " fill="#CDD3DA" transform="translate(106,66)"/>
<path d="M0 0 C0.99 0 1.98 0 3 0 C3.64982675 8.97121936 2.06867151 12.96227433 -3.375 20.125 C-6.13580166 23.14873515 -8.67478498 25.61451966 -12 28 C-12.99 27.67 -13.98 27.34 -15 27 C-13.46420785 23.38881305 -11.26500836 21.00538638 -8.5625 18.1875 C-3.28809236 12.42205602 -0.9585859 7.86040434 0 0 Z " fill="#093C67" transform="translate(128,59)"/>
<path d="M0 0 C0.99 0 1.98 0 3 0 C3 4.95 3 9.9 3 15 C-3.0546875 15.1953125 -3.0546875 15.1953125 -5 15 C-7 13 -7 13 -7.3125 10.0625 C-7 7 -7 7 -5.6875 5.125 C-4 4 -4 4 -1 4 C-0.67 2.68 -0.34 1.36 0 0 Z " fill="#325278" transform="translate(74,108)"/>
<path d="M0 0 C0.99 0 1.98 0 3 0 C3 4.95 3 9.9 3 15 C2.01 15 1.02 15 0 15 C-0.33 12.69 -0.66 10.38 -1 8 C-2.32 8 -3.64 8 -5 8 C-5 7.34 -5 6.68 -5 6 C-5.66 6 -6.32 6 -7 6 C-7 8.97 -7 11.94 -7 15 C-7.66 15 -8.32 15 -9 15 C-9 10.38 -9 5.76 -9 1 C-6 1 -6 1 -3.8125 3 C-3.214375 3.66 -2.61625 4.32 -2 5 C-1.34 3.35 -0.68 1.7 0 0 Z " fill="#305176" transform="translate(50,108)"/>
<path d="M0 0 C5.56818182 0.56818182 5.56818182 0.56818182 7 2 C7.1875 5.4375 7.1875 5.4375 7 9 C5 11 5 11 1.9375 11.1875 C-1 11 -1 11 -2 10 C-2.27314815 4.26388889 -2.27314815 4.26388889 -2 2 C-1.34 1.34 -0.68 0.68 0 0 Z " fill="#88DB63" transform="translate(101,112)"/>
<path d="M0 0 C2 2 2 2 2 5 C1.01 5 0.02 5 -1 5 C-1 4.34 -1 3.68 -1 3 C-2.32 3.33 -3.64 3.66 -5 4 C-5 6.64 -5 9.28 -5 12 C-4.01 12 -3.02 12 -2 12 C-1.67 11.34 -1.34 10.68 -1 10 C-0.01 10 0.98 10 2 10 C1.125 13.875 1.125 13.875 0 15 C-3.4375 15.1875 -3.4375 15.1875 -7 15 C-9.51012963 12.48987037 -9.29721609 11.53194763 -9.3125 8.0625 C-9.32925781 7.18722656 -9.34601563 6.31195313 -9.36328125 5.41015625 C-9 3 -9 3 -7.671875 1.203125 C-5.11704778 -0.63539552 -3.05110193 -0.32458531 0 0 Z " fill="#8FDD6D" transform="translate(94,108)"/>
<path d="M0 0 C2.875 0.75 2.875 0.75 3.875 1.75 C3.91563832 3.41617115 3.917721 5.08388095 3.875 6.75 C1.895 7.08 -0.085 7.41 -2.125 7.75 C-0.475 7.75 1.175 7.75 2.875 7.75 C2.875 8.74 2.875 9.73 2.875 10.75 C-0.5 10.9375 -0.5 10.9375 -4.125 10.75 C-6.28002531 7.51746204 -6.59356135 6.49849077 -6.125 2.75 C-4.319333 -0.259445 -3.53577529 -0.28286202 0 0 Z " fill="#204770" transform="translate(61.125,112.25)"/>
<path d="M0 0 C0.33 1.98 0.66 3.96 1 6 C0.01 6.33 -0.98 6.66 -2 7 C-1.34 7 -0.68 7 0 7 C-0.33 7.99 -0.66 8.98 -1 10 C-3.875 10.1875 -3.875 10.1875 -7 10 C-9.15502531 6.76746204 -9.46856135 5.74849077 -9 2 C-6.63480795 -1.94198675 -4.0732639 -0.99568673 0 0 Z " fill="#8DDC6A" transform="translate(143,113)"/>
<path d="M0 0 C6.0546875 -0.1953125 6.0546875 -0.1953125 8 0 C10 2 10 2 10.1953125 4.3828125 C10.17210937 5.28773437 10.14890625 6.19265625 10.125 7.125 C10.10695312 8.03507812 10.08890625 8.94515625 10.0703125 9.8828125 C10.04710937 10.58148438 10.02390625 11.28015625 10 12 C9.01 12 8.02 12 7 12 C7 9.03 7 6.06 7 3 C6.01 3.33 5.02 3.66 4 4 C3.67 6.64 3.34 9.28 3 12 C2.01 12 1.02 12 0 12 C0 8.04 0 4.08 0 0 Z " fill="#96DF77" transform="translate(122,112)"/>
<path d="M0 0 C4.39235335 1.12946229 6.59462218 3.19982434 9.0625 6.84765625 C10.77413686 10.77728921 10.37969304 14.80650132 10 19 C9.67 19 9.34 19 9 19 C8.67 16.69 8.34 14.38 8 12 C7.67 12 7.34 12 7 12 C6.67 13.65 6.34 15.3 6 17 C5.67 17 5.34 17 5 17 C4.90203125 16.40832031 4.8040625 15.81664062 4.703125 15.20703125 C3.71919539 10.00747221 2.48858451 7.09006459 -1 3 C-0.67 2.01 -0.34 1.02 0 0 Z " fill="#224A71" transform="translate(122,48)"/>
<path d="M0 0 C0 3.63 0 7.26 0 11 C-0.99 11 -1.98 11 -3 11 C-3 8.03 -3 5.06 -3 2 C-3.99 2.33 -4.98 2.66 -6 3 C-6.33 5.31 -6.66 7.62 -7 10 C-7.66 10 -8.32 10 -9 10 C-9 6.7 -9 3.4 -9 0 C-5 -1 -5 -1 0 0 Z " fill="#8DDD6A" transform="translate(120,113)"/>
<path d="M0 0 C1 2 1 2 0.1875 4.5625 C-1 7 -1 7 -3 8 C-4.49756871 8.09499503 -5.99942932 8.12987198 -7.5 8.125 C-8.2940625 8.12757812 -9.088125 8.13015625 -9.90625 8.1328125 C-12 8 -12 8 -14 7 C-14 5.68 -14 4.36 -14 3 C-12.98679688 3.05220703 -12.98679688 3.05220703 -11.953125 3.10546875 C-10.61507812 3.14607422 -10.61507812 3.14607422 -9.25 3.1875 C-8.36828125 3.22230469 -7.4865625 3.25710937 -6.578125 3.29296875 C-3.55328417 2.94923684 -2.24416398 1.99772541 0 0 Z " fill="#8CDC69" transform="translate(67,93)"/>
<path d="M0 0 C0.66 1.32 1.32 2.64 2 4 C-3.9093867 9.0101322 -6.20910436 10.12565961 -14 10 C-13.01 9.67 -12.02 9.34 -11 9 C-11 7.68 -11 6.36 -11 5 C-10.113125 4.731875 -9.22625 4.46375 -8.3125 4.1875 C-5.23122452 3.08289181 -2.73778595 1.77150856 0 0 Z " fill="#214A71" transform="translate(153,89)"/>
<path d="M0 0 C0.33 0.99 0.66 1.98 1 3 C-1.31 2.67 -3.62 2.34 -6 2 C-5.67 3.65 -5.34 5.3 -5 7 C-4.01 7.33 -3.02 7.66 -2 8 C-2 7.34 -2 6.68 -2 6 C-1.01 6 -0.02 6 1 6 C0.34 7.32 -0.32 8.64 -1 10 C-3.875 10.1875 -3.875 10.1875 -7 10 C-9.15502531 6.76746204 -9.46856135 5.74849077 -9 2 C-6.63480795 -1.94198675 -4.0732639 -0.99568673 0 0 Z " fill="#89DB64" transform="translate(155,113)"/>
<path d="M0 0 C0 2.33333333 0 4.66666667 0 7 C-1.65 7 -3.3 7 -5 7 C-5 7.66 -5 8.32 -5 9 C-5.66 9 -6.32 9 -7 9 C-8.33157895 3.55263158 -8.33157895 3.55263158 -6.875 1.125 C-4.46277487 -0.32233508 -2.7648665 -0.22417836 0 0 Z " fill="#F1F3F5" transform="translate(146,81)"/>
<path d="M0 0 C0.99 0 1.98 0 3 0 C3 4.95 3 9.9 3 15 C0.36 15 -2.28 15 -5 15 C-5.33 13.35 -5.66 11.7 -6 10 C-5.67 10.99 -5.34 11.98 -5 13 C-3.35 12.67 -1.7 12.34 0 12 C0 8.04 0 4.08 0 0 Z " fill="#183567" transform="translate(74,108)"/>
<path d="M0 0 C0.99 0 1.98 0 3 0 C3 0.99 3 1.98 3 3 C3.66 3 4.32 3 5 3 C5 3.66 5 4.32 5 5 C4.34 5 3.68 5 3 5 C3 7.31 3 9.62 3 12 C3.66 12 4.32 12 5 12 C5 12.66 5 13.32 5 14 C3.35 13.67 1.7 13.34 0 13 C-0.19551338 11.39679026 -0.38111983 9.79237014 -0.5625 8.1875 C-0.71912109 6.84751953 -0.71912109 6.84751953 -0.87890625 5.48046875 C-1 3 -1 3 0 0 Z " fill="#93DE72" transform="translate(159,109)"/>
<path d="M0 0 C0.99 0.33 1.98 0.66 3 1 C2.34 1.37125 1.68 1.7425 1 2.125 C-1.29468448 3.89599371 -1.29468448 3.89599371 -1.5 7 C-1.26252034 10.04015703 -1.26252034 10.04015703 0.6875 11.9375 C3.62978228 13.28935942 4.96144962 13.01285013 8 12 C8.99 11.34 9.98 10.68 11 10 C9.125 13.875 9.125 13.875 8 15 C3.6455419 15.50243747 1.66586471 15.48168936 -1.9375 12.875 C-4 10 -4 10 -4.5625 6.9375 C-3.88943111 3.4225847 -2.73706304 2.22386372 0 0 Z " fill="#DDE1E6" transform="translate(139,79)"/>
<path d="M0 0 C3.69212837 -0.3434538 5.60790131 -0.221621 8.875 1.625 C11 4 11 4 11.3125 7.25 C11.1578125 8.61125 11.1578125 8.61125 11 10 C10 8 9 6 8 4 C4.58343976 3.83322718 4.58343976 3.83322718 1 4 C-1.34973818 5.89755144 -1.34973818 5.89755144 -1.125 9.125 C-1.08375 10.07375 -1.0425 11.0225 -1 12 C-1.66 11.67 -2.32 11.34 -3 11 C-3.37017995 5.57069409 -3.37017995 5.57069409 -1.5 2.6875 C-1.005 2.130625 -0.51 1.57375 0 1 C0 0.67 0 0.34 0 0 Z " fill="#8999AF" transform="translate(140,78)"/>
<path d="M0 0 C0.99 0 1.98 0 3 0 C3.28526928 3.37885612 3.46087248 6.63291991 3 10 C0.5 12.125 0.5 12.125 -2 13 C-1.39174965 8.65535464 -0.73832608 4.32448133 0 0 Z " fill="#083865" transform="translate(128,59)"/>
<path d="M0 0 C1.67542976 0.28604898 3.34385343 0.61781233 5 1 C5.8125 3.1875 5.8125 3.1875 6 6 C3.875 8.875 3.875 8.875 1 11 C-1.8125 10.8125 -1.8125 10.8125 -4 10 C-3.401875 9.896875 -2.80375 9.79375 -2.1875 9.6875 C0.33421352 8.89496146 1.39685699 8.08408591 3 6 C3 5.01 3 4.02 3 3 C1.02 3.66 -0.96 4.32 -3 5 C-1.125 1.125 -1.125 1.125 0 0 Z " fill="#395279" transform="translate(106,66)"/>
<path d="M0 0 C0.33 0.66 0.66 1.32 1 2 C-0.423125 2.37125 -0.423125 2.37125 -1.875 2.75 C-5.08693191 3.6857077 -5.08693191 3.6857077 -6.375 6.125 C-6.58125 6.74375 -6.7875 7.3625 -7 8 C-6.401875 7.835 -5.80375 7.67 -5.1875 7.5 C-3 7 -3 7 0 7 C-1.75 9.0625 -1.75 9.0625 -4 11 C-6.21844626 10.80984746 -7.41522155 10.58477845 -9 9 C-9.44437646 5.71161423 -9.2944593 4.40351831 -7.3125 1.6875 C-4.60883753 -0.28544288 -3.27034459 -0.36337162 0 0 Z " fill="#304873" transform="translate(105,72)"/>
<path d="M0 0 C0.99 0 1.98 0 3 0 C3 3.96 3 7.92 3 12 C2.01 12 1.02 12 0 12 C0 8.04 0 4.08 0 0 Z " fill="#416082" transform="translate(80,112)"/>
<path d="M0 0 C1.5 1 1.5 1 3 3 C3.39491399 5.79873829 3.227129 8.13817454 3 11 C2.34 11.66 1.68 12.32 1 13 C0.67 12.34 0.34 11.68 0 11 C-0.99 11 -1.98 11 -3 11 C-2.34 9.02 -1.68 7.04 -1 5 C-0.34 5 0.32 5 1 5 C0.67 3.35 0.34 1.7 0 0 Z " fill="#0D3A67" transform="translate(153,79)"/>
<path d="M0 0 C0 0.33 0 0.66 0 1 C-2.97 1 -5.94 1 -9 1 C-9 2.65 -9 4.3 -9 6 C-10.32 6.33 -11.64 6.66 -13 7 C-13.66 5.68 -14.32 4.36 -15 3 C-10.27805833 -0.77755334 -5.74071928 -0.30096975 0 0 Z " fill="#446484" transform="translate(120,46)"/>
<path d="M0 0 C0.66 0 1.32 0 2 0 C2.33 3.3 2.66 6.6 3 10 C1.02 10.99 1.02 10.99 -1 12 C-1.02687279 10.18757948 -1.04633715 8.37504767 -1.0625 6.5625 C-1.07410156 5.55316406 -1.08570312 4.54382812 -1.09765625 3.50390625 C-1 1 -1 1 0 0 Z " fill="#87DB62" transform="translate(77,59)"/>
<path d="M0 0 C0.99 0 1.98 0 3 0 C3.33 1.32 3.66 2.64 4 4 C3.34 4 2.68 4 2 4 C2 7.3 2 10.6 2 14 C1.34 14 0.68 14 0 14 C0 9.38 0 4.76 0 0 Z " fill="#133966" transform="translate(41,109)"/>
<path d="M0 0 C0.99 0.66 1.98 1.32 3 2 C-0.31114834 3.12880057 -3.58978257 4.21302675 -7 5 C-7 4.01 -7 3.02 -7 2 C-7.66 1.67 -8.32 1.34 -9 1 C-5.64847025 -1.11022243 -3.76699068 -1.15907406 0 0 Z " fill="#95DF75" transform="translate(67,75)"/>
<path d="M0 0 C0.66 0.33 1.32 0.66 2 1 C2.99 0.67 3.98 0.34 5 0 C3.7251791 2.84383123 2.54862922 5.13754018 0 7 C-2.1875 6.6875 -2.1875 6.6875 -4 6 C-2.68 4.02 -1.36 2.04 0 0 Z " fill="#295075" transform="translate(125,70)"/>
<path d="M0 0 C0.66 0 1.32 0 2 0 C3.26237731 2.52475462 3.09856404 4.31200466 3.0625 7.125 C3.05347656 8.03507812 3.04445312 8.94515625 3.03515625 9.8828125 C3.02355469 10.58148438 3.01195312 11.28015625 3 12 C2.67 12 2.34 12 2 12 C1.67 9.69 1.34 7.38 1 5 C0.67 5 0.34 5 0 5 C-0.33 6.65 -0.66 8.3 -1 10 C-1.33 10 -1.66 10 -2 10 C-2 7.69 -2 5.38 -2 3 C-1.34 3 -0.68 3 0 3 C0 2.01 0 1.02 0 0 Z " fill="#5E7793" transform="translate(129,55)"/>
<path d="M0 0 C0.99 1.485 0.99 1.485 2 3 C3.83883881 5.28728734 3.83883881 5.28728734 6.625 5.125 C7.40875 5.08375 8.1925 5.0425 9 5 C9 5.99 9 6.98 9 8 C5.625 8.1875 5.625 8.1875 2 8 C-0.1519437 4.77208445 -0.20086443 3.71599191 0 0 Z " fill="#3A567C" transform="translate(55,115)"/>
<path d="M0 0 C-0.33 1.32 -0.66 2.64 -1 4 C-5 4 -5 4 -8 3 C-6.14481495 -0.71037009 -3.79223618 -1.26407873 0 0 Z " fill="#E1E5EA" transform="translate(110,69)"/>
<path d="M0 0 C2.97 0.495 2.97 0.495 6 1 C6 1.99 6 2.98 6 4 C5 5 5 5 2.4375 5.0625 C1.2309375 5.0315625 1.2309375 5.0315625 0 5 C0 3.33333333 0 1.66666667 0 0 Z " fill="#6F849D" transform="translate(58,112)"/>
<path d="M0 0 C0.33 2.64 0.66 5.28 1 8 C-0.65 7.67 -2.3 7.34 -4 7 C-4 5.02 -4 3.04 -4 1 C-1 0 -1 0 0 0 Z " fill="#0C3664" transform="translate(135,83)"/>
<path d="M0 0 C0.66 0 1.32 0 2 0 C2.125 2.875 2.125 2.875 2 6 C0 8 0 8 -2.625 8.125 C-3.40875 8.08375 -4.1925 8.0425 -5 8 C-5 7.34 -5 6.68 -5 6 C-3.68 5.67 -2.36 5.34 -1 5 C-0.67 3.35 -0.34 1.7 0 0 Z " fill="#81D959" transform="translate(106,115)"/>
<path d="M0 0 C-1 2 -2 4 -3 6 C-4.32 5.67 -5.64 5.34 -7 5 C-6.1875 3.0625 -6.1875 3.0625 -5 1 C-2 0 -2 0 0 0 Z " fill="#16426B" transform="translate(125,76)"/>
<path d="M0 0 C2.97 0.495 2.97 0.495 6 1 C5.67 2.32 5.34 3.64 5 5 C3.35 5 1.7 5 0 5 C0 3.33333333 0 1.66666667 0 0 Z " fill="#AEE697" transform="translate(137,112)"/>
<path d="M0 0 C0.99 0 1.98 0 3 0 C3 1.98 3 3.96 3 6 C1.68 5.67 0.36 5.34 -1 5 C-0.67 3.35 -0.34 1.7 0 0 Z " fill="#F3FBF0" transform="translate(102,115)"/>
<path d="M0 0 C0.99 0 1.98 0 3 0 C3 1.98 3 3.96 3 6 C1.68 5.67 0.36 5.34 -1 5 C-0.67 3.35 -0.34 1.7 0 0 Z " fill="#E7EAEE" transform="translate(71,115)"/>
<path d="M0 0 C2.875 -0.125 2.875 -0.125 6 0 C8 2 8 2 8 5 C7.01 5 6.02 5 5 5 C5 4.34 5 3.68 5 3 C4.01 2.67 3.02 2.34 2 2 C1.34 1.34 0.68 0.68 0 0 Z " fill="#98DF79" transform="translate(88,108)"/>
<path d="M0 0 C2.52588702 2.36292656 3.88820837 3.66462511 5 7 C3.0625 7.5625 3.0625 7.5625 1 8 C0 7 0 7 -0.0625 3.4375 C-0.041875 2.303125 -0.02125 1.16875 0 0 Z " fill="#96DF77" transform="translate(48,86)"/>
<path d="M0 0 C0.99 0.33 1.98 0.66 3 1 C2.01 2.485 2.01 2.485 1 4 C0.67 4.66 0.34 5.32 0 6 C-1.97888961 6.72693904 -3.97954558 7.39816251 -6 8 C-4.02 5.36 -2.04 2.72 0 0 Z " fill="#C7CED6" transform="translate(128,73)"/>
<path d="M0 0 C1.65 0 3.3 0 5 0 C4.01 0.495 4.01 0.495 3 1 C3 1.66 3 2.32 3 3 C4.32 3.33 5.64 3.66 7 4 C4.13822943 5.43088528 2.06624227 4.59991697 -1 4 C-0.67 2.68 -0.34 1.36 0 0 Z " fill="#0C3564" transform="translate(141,74)"/>
<path d="M0 0 C0.99 0 1.98 0 3 0 C2.125 3.875 2.125 3.875 1 5 C-1.33297433 5.04092937 -3.66705225 5.04241723 -6 5 C-6 4.67 -6 4.34 -6 4 C-4.35 4 -2.7 4 -1 4 C-0.67 2.68 -0.34 1.36 0 0 Z " fill="#91DD6F" transform="translate(93,118)"/>
<path d="M0 0 C2.9375 0.375 2.9375 0.375 6 1 C6.33 1.66 6.66 2.32 7 3 C6.34 3 5.68 3 5 3 C5 4.65 5 6.3 5 8 C4.67 8 4.34 8 4 8 C4 6.35 4 4.7 4 3 C3.01 2.67 2.02 2.34 1 2 C0.67 1.34 0.34 0.68 0 0 Z " fill="#9DE181" transform="translate(101,112)"/>
<path d="M0 0 C0.33 0.66 0.66 1.32 1 2 C0.0625 4.625 0.0625 4.625 -1 7 C-1.66 6.34 -2.32 5.68 -3 5 C-5.58354218 4.83312552 -5.58354218 4.83312552 -8 5 C-7.4225 4.731875 -6.845 4.46375 -6.25 4.1875 C-3.9674132 2.98280141 -2.0262058 1.59201885 0 0 Z " fill="#9FE182" transform="translate(67,93)"/>
<path d="M0 0 C1.0448029 3.13440869 1.15317663 4.02096037 0 7 C-0.99 7.66 -1.98 8.32 -3 9 C-2.5020163 5.26512223 -2.12508244 3.18762365 0 0 Z " fill="#84DA5E" transform="translate(70,89)"/>
<path d="M0 0 C0.33 0 0.66 0 1 0 C1.16276042 2.01822917 1.32552083 4.03645833 1.48828125 6.0546875 C1.87393036 8.39519216 1.87393036 8.39519216 5 10 C3.02 10 1.04 10 -1 10 C-0.67 6.7 -0.34 3.4 0 0 Z " fill="#7ED854" transform="translate(87,112)"/>
<path d="M0 0 C1.98 0.495 1.98 0.495 4 1 C3.1875 2.9375 3.1875 2.9375 2 5 C1.01 5.33 0.02 5.66 -1 6 C-0.67 4.02 -0.34 2.04 0 0 Z " fill="#143F6A" transform="translate(127,66)"/>
<path d="M0 0 C2.97 0.495 2.97 0.495 6 1 C6.33 1.99 6.66 2.98 7 4 C4.03 3.505 4.03 3.505 1 3 C0.67 2.01 0.34 1.02 0 0 Z " fill="#95DE75" transform="translate(149,112)"/>
<path d="M0 0 C0.66 0.33 1.32 0.66 2 1 C-0.3125 3.5 -0.3125 3.5 -3 6 C-3.99 6 -4.98 6 -6 6 C-4 4 -2 2 0 0 Z " fill="#E2ECE4" transform="translate(86,70)"/>
</svg>
